<mxfile host="app.diagrams.net" modified="2023-02-14T15:28:21.121Z" agent="5.0 (X11; Linux x86_64) AppleWebKit/537.36 (KHTML, like Gecko) Chrome/98.0.4758.102 Safari/537.36" etag="eeLKiNEYCDvDNauPWDbs" version="20.8.19" type="github">
  <diagram name="Page-1" id="fNj0-TE6Fdqqiyk1-ISK">
    <mxGraphModel dx="6097" dy="5197" grid="1" gridSize="10" guides="1" tooltips="1" connect="1" arrows="1" fold="1" page="0" pageScale="1" pageWidth="827" pageHeight="1169" math="0" shadow="0">
      <root>
        <mxCell id="0" />
        <mxCell id="1" parent="0" />
        <mxCell id="ArCHf40UDOw1Z-b-1YcN-1" value="" style="rounded=0;whiteSpace=wrap;html=1;fontFamily=Montserrat;fontSource=https%3A%2F%2Ffonts.googleapis.com%2Fcss%3Ffamily%3DMontserrat;fontSize=24;fillColor=#bac8d3;strokeColor=none;opacity=30;" parent="1" vertex="1">
          <mxGeometry x="6440" y="-568.75" width="580" height="597.5" as="geometry" />
        </mxCell>
        <mxCell id="ArCHf40UDOw1Z-b-1YcN-2" value="katanaTools_site" style="rounded=0;whiteSpace=wrap;html=1;fillColor=#b1ddf0;strokeColor=#10739e;fontStyle=1" parent="1" vertex="1">
          <mxGeometry x="6471.5" y="-538.75" width="489" height="75" as="geometry" />
        </mxCell>
        <mxCell id="ArCHf40UDOw1Z-b-1YcN-3" value="MERGE SITE TO MASTER" style="text;fillColor=none;align=left;verticalAlign=middle;spacingLeft=4;spacingRight=4;overflow=hidden;points=[[0,0.5],[1,0.5]];portConstraint=eastwest;rotatable=0;whiteSpace=wrap;html=1;fontFamily=Montserrat;fontSource=https%3A%2F%2Ffonts.googleapis.com%2Fcss%3Ffamily%3DMontserrat;fontStyle=1;fontSize=24;fontColor=#1A1A1A;" parent="1" vertex="1">
          <mxGeometry x="6440" y="-598.75" width="320" height="30" as="geometry" />
        </mxCell>
        <mxCell id="ArCHf40UDOw1Z-b-1YcN-4" value="&lt;div style=&quot;text-align: start;&quot;&gt;&lt;span style=&quot;background-color: initial; font-weight: 400;&quot;&gt;-master&lt;/span&gt;&lt;/div&gt;" style="rounded=0;whiteSpace=wrap;html=1;fillColor=#b1ddf0;strokeColor=#10739e;fontStyle=1;fontSize=12;" parent="1" vertex="1">
          <mxGeometry x="6471.5" y="-438.75" width="240" height="50" as="geometry" />
        </mxCell>
        <mxCell id="ArCHf40UDOw1Z-b-1YcN-5" value="&lt;span style=&quot;font-size: 12px; text-align: start; font-weight: normal;&quot;&gt;-master-fra&lt;/span&gt;" style="rounded=0;whiteSpace=wrap;html=1;fillColor=#b1ddf0;strokeColor=#10739e;fontStyle=1;fontSize=12;" parent="1" vertex="1">
          <mxGeometry x="6720.5" y="-438.75" width="240" height="50" as="geometry" />
        </mxCell>
        <mxCell id="ArCHf40UDOw1Z-b-1YcN-6" value="Package empty" style="shape=note2;boundedLbl=1;whiteSpace=wrap;html=1;size=25;verticalAlign=top;align=center;fontFamily=Helvetica;fontSize=12;fillColor=#fff2cc;strokeColor=#d6b656;fontStyle=2;" parent="1" vertex="1">
          <mxGeometry x="6471.5" y="-371.25" width="240" height="75" as="geometry" />
        </mxCell>
        <mxCell id="ArCHf40UDOw1Z-b-1YcN-7" value="&lt;span style=&quot;color: rgb(23, 43, 77); font-family: -apple-system, BlinkMacSystemFont, &amp;quot;Segoe UI&amp;quot;, Roboto, Oxygen, Ubuntu, &amp;quot;Fira Sans&amp;quot;, &amp;quot;Droid Sans&amp;quot;, &amp;quot;Helvetica Neue&amp;quot;, sans-serif; font-size: 14px; text-align: start; font-weight: normal;&quot;&gt;...&lt;/span&gt;" style="rounded=0;whiteSpace=wrap;html=1;fillColor=#b1ddf0;strokeColor=#10739e;fontStyle=1" parent="1" vertex="1">
          <mxGeometry x="6720.5" y="-358.75" width="70" height="50" as="geometry" />
        </mxCell>
        <mxCell id="ArCHf40UDOw1Z-b-1YcN-8" value="&lt;span style=&quot;color: rgb(23, 43, 77); font-family: -apple-system, BlinkMacSystemFont, &amp;quot;Segoe UI&amp;quot;, Roboto, Oxygen, Ubuntu, &amp;quot;Fira Sans&amp;quot;, &amp;quot;Droid Sans&amp;quot;, &amp;quot;Helvetica Neue&amp;quot;, sans-serif; font-size: 14px; text-align: start; font-weight: normal;&quot;&gt;...&lt;/span&gt;" style="rounded=0;whiteSpace=wrap;html=1;fillColor=#b1ddf0;strokeColor=#10739e;fontStyle=1" parent="1" vertex="1">
          <mxGeometry x="6890.5" y="-358.75" width="70" height="50" as="geometry" />
        </mxCell>
        <mxCell id="ArCHf40UDOw1Z-b-1YcN-9" value="&lt;span style=&quot;color: rgb(23, 43, 77); font-family: -apple-system, BlinkMacSystemFont, &amp;quot;Segoe UI&amp;quot;, Roboto, Oxygen, Ubuntu, &amp;quot;Fira Sans&amp;quot;, &amp;quot;Droid Sans&amp;quot;, &amp;quot;Helvetica Neue&amp;quot;, sans-serif; font-size: 14px; text-align: start; font-weight: normal;&quot;&gt;...&lt;/span&gt;" style="rounded=0;whiteSpace=wrap;html=1;fillColor=#b1ddf0;strokeColor=#10739e;fontStyle=1" parent="1" vertex="1">
          <mxGeometry x="6805.5" y="-358.75" width="70" height="50" as="geometry" />
        </mxCell>
        <mxCell id="ArCHf40UDOw1Z-b-1YcN-10" value="katanaTools_site" style="rounded=0;whiteSpace=wrap;html=1;fillColor=#b1ddf0;strokeColor=#10739e;fontStyle=1" parent="1" vertex="1">
          <mxGeometry x="6471.5" y="-194.32999999999998" width="489" height="75" as="geometry" />
        </mxCell>
        <mxCell id="ArCHf40UDOw1Z-b-1YcN-11" value="&lt;div style=&quot;text-align: start;&quot;&gt;&lt;span style=&quot;background-color: initial; font-weight: 400;&quot;&gt;-master&lt;/span&gt;&lt;/div&gt;" style="rounded=0;whiteSpace=wrap;html=1;fillColor=#b0e3e6;strokeColor=#0e8088;fontStyle=1;fontSize=12;" parent="1" vertex="1">
          <mxGeometry x="6471.5" y="-94.33" width="240" height="50" as="geometry" />
        </mxCell>
        <mxCell id="ArCHf40UDOw1Z-b-1YcN-12" style="edgeStyle=orthogonalEdgeStyle;rounded=0;orthogonalLoop=1;jettySize=auto;html=1;entryX=0.5;entryY=1;entryDx=0;entryDy=0;exitX=0.5;exitY=1;exitDx=0;exitDy=0;" parent="1" source="ArCHf40UDOw1Z-b-1YcN-14" target="ArCHf40UDOw1Z-b-1YcN-11" edge="1">
          <mxGeometry relative="1" as="geometry" />
        </mxCell>
        <mxCell id="ArCHf40UDOw1Z-b-1YcN-13" value="Merge" style="edgeLabel;html=1;align=center;verticalAlign=middle;resizable=0;points=[];labelBackgroundColor=none;" parent="ArCHf40UDOw1Z-b-1YcN-12" vertex="1" connectable="0">
          <mxGeometry x="0.0761" y="1" relative="1" as="geometry">
            <mxPoint x="11" y="7" as="offset" />
          </mxGeometry>
        </mxCell>
        <mxCell id="ArCHf40UDOw1Z-b-1YcN-14" value="&lt;span style=&quot;font-size: 12px; text-align: start; font-weight: normal;&quot;&gt;-master-fra&lt;/span&gt;" style="rounded=0;whiteSpace=wrap;html=1;fillColor=#b0e3e6;strokeColor=#0e8088;fontStyle=1;fontSize=12;" parent="1" vertex="1">
          <mxGeometry x="6720.5" y="-94.33" width="240" height="50" as="geometry" />
        </mxCell>
        <mxCell id="ArCHf40UDOw1Z-b-1YcN-27" style="edgeStyle=orthogonalEdgeStyle;rounded=0;orthogonalLoop=1;jettySize=auto;html=1;entryX=0;entryY=0.5;entryDx=0;entryDy=0;" parent="1" source="ArCHf40UDOw1Z-b-1YcN-15" target="ArCHf40UDOw1Z-b-1YcN-16" edge="1">
          <mxGeometry relative="1" as="geometry" />
        </mxCell>
        <mxCell id="ArCHf40UDOw1Z-b-1YcN-28" style="edgeStyle=orthogonalEdgeStyle;rounded=0;orthogonalLoop=1;jettySize=auto;html=1;entryX=0;entryY=0.5;entryDx=0;entryDy=0;" parent="1" source="ArCHf40UDOw1Z-b-1YcN-15" target="ArCHf40UDOw1Z-b-1YcN-18" edge="1">
          <mxGeometry relative="1" as="geometry" />
        </mxCell>
        <mxCell id="ArCHf40UDOw1Z-b-1YcN-15" value="bslCore" style="rounded=0;whiteSpace=wrap;html=1;fillColor=#f8cecc;strokeColor=#b85450;fontStyle=1" parent="1" vertex="1">
          <mxGeometry x="256" width="160" height="40" as="geometry" />
        </mxCell>
        <mxCell id="ArCHf40UDOw1Z-b-1YcN-32" value="" style="edgeStyle=orthogonalEdgeStyle;rounded=0;orthogonalLoop=1;jettySize=auto;html=1;" parent="1" source="ArCHf40UDOw1Z-b-1YcN-16" target="ArCHf40UDOw1Z-b-1YcN-31" edge="1">
          <mxGeometry relative="1" as="geometry" />
        </mxCell>
        <mxCell id="ArCHf40UDOw1Z-b-1YcN-48" value="" style="edgeStyle=orthogonalEdgeStyle;rounded=0;orthogonalLoop=1;jettySize=auto;html=1;" parent="1" source="ArCHf40UDOw1Z-b-1YcN-16" target="ArCHf40UDOw1Z-b-1YcN-31" edge="1">
          <mxGeometry relative="1" as="geometry" />
        </mxCell>
        <mxCell id="ArCHf40UDOw1Z-b-1YcN-53" style="edgeStyle=orthogonalEdgeStyle;rounded=0;orthogonalLoop=1;jettySize=auto;html=1;entryX=0;entryY=0.5;entryDx=0;entryDy=0;" parent="1" source="ArCHf40UDOw1Z-b-1YcN-16" target="ArCHf40UDOw1Z-b-1YcN-51" edge="1">
          <mxGeometry relative="1" as="geometry" />
        </mxCell>
        <mxCell id="ArCHf40UDOw1Z-b-1YcN-54" style="edgeStyle=orthogonalEdgeStyle;rounded=0;orthogonalLoop=1;jettySize=auto;html=1;entryX=0;entryY=0.5;entryDx=0;entryDy=0;" parent="1" source="ArCHf40UDOw1Z-b-1YcN-16" target="ArCHf40UDOw1Z-b-1YcN-24" edge="1">
          <mxGeometry relative="1" as="geometry" />
        </mxCell>
        <mxCell id="EVRE5EcxyL9VyUtN3MJP-63" value="" style="edgeStyle=orthogonalEdgeStyle;rounded=0;orthogonalLoop=1;jettySize=auto;html=1;" edge="1" parent="1" source="ArCHf40UDOw1Z-b-1YcN-16" target="ArCHf40UDOw1Z-b-1YcN-31">
          <mxGeometry relative="1" as="geometry" />
        </mxCell>
        <mxCell id="ArCHf40UDOw1Z-b-1YcN-16" value="fraCore" style="rounded=0;whiteSpace=wrap;html=1;fillColor=#f8cecc;strokeColor=#b85450;fontStyle=1" parent="1" vertex="1">
          <mxGeometry x="482" y="-88.75" width="160" height="40" as="geometry" />
        </mxCell>
        <mxCell id="ArCHf40UDOw1Z-b-1YcN-30" value="" style="edgeStyle=orthogonalEdgeStyle;rounded=0;orthogonalLoop=1;jettySize=auto;html=1;" parent="1" source="ArCHf40UDOw1Z-b-1YcN-18" target="ArCHf40UDOw1Z-b-1YcN-29" edge="1">
          <mxGeometry relative="1" as="geometry" />
        </mxCell>
        <mxCell id="ArCHf40UDOw1Z-b-1YcN-57" style="edgeStyle=orthogonalEdgeStyle;rounded=0;orthogonalLoop=1;jettySize=auto;html=1;entryX=0;entryY=0.5;entryDx=0;entryDy=0;" parent="1" source="ArCHf40UDOw1Z-b-1YcN-18" target="ArCHf40UDOw1Z-b-1YcN-55" edge="1">
          <mxGeometry relative="1" as="geometry" />
        </mxCell>
        <mxCell id="ArCHf40UDOw1Z-b-1YcN-58" style="edgeStyle=orthogonalEdgeStyle;rounded=0;orthogonalLoop=1;jettySize=auto;html=1;entryX=0;entryY=0.5;entryDx=0;entryDy=0;" parent="1" source="ArCHf40UDOw1Z-b-1YcN-18" target="ArCHf40UDOw1Z-b-1YcN-56" edge="1">
          <mxGeometry relative="1" as="geometry" />
        </mxCell>
        <mxCell id="ArCHf40UDOw1Z-b-1YcN-18" value="bslTkConfig" style="rounded=0;whiteSpace=wrap;html=1;fillColor=#f8cecc;strokeColor=#b85450;fontStyle=1" parent="1" vertex="1">
          <mxGeometry x="482" y="105.66999999999999" width="160" height="40" as="geometry" />
        </mxCell>
        <mxCell id="ArCHf40UDOw1Z-b-1YcN-23" value="tractor" style="rounded=0;whiteSpace=wrap;html=1;fillColor=#f8cecc;strokeColor=#b85450;fontStyle=1" parent="1" vertex="1">
          <mxGeometry x="934" y="-308.75" width="160" height="40" as="geometry" />
        </mxCell>
        <mxCell id="ArCHf40UDOw1Z-b-1YcN-60" style="edgeStyle=orthogonalEdgeStyle;rounded=0;orthogonalLoop=1;jettySize=auto;html=1;entryX=0;entryY=0.5;entryDx=0;entryDy=0;" parent="1" source="ArCHf40UDOw1Z-b-1YcN-24" target="ArCHf40UDOw1Z-b-1YcN-23" edge="1">
          <mxGeometry relative="1" as="geometry" />
        </mxCell>
        <mxCell id="ArCHf40UDOw1Z-b-1YcN-24" value="simpleFarmAnim" style="rounded=0;whiteSpace=wrap;html=1;fillColor=#f8cecc;strokeColor=#b85450;fontStyle=1" parent="1" vertex="1">
          <mxGeometry x="708" y="-308.75" width="160" height="40" as="geometry" />
        </mxCell>
        <mxCell id="ArCHf40UDOw1Z-b-1YcN-59" style="edgeStyle=orthogonalEdgeStyle;rounded=0;orthogonalLoop=1;jettySize=auto;html=1;entryX=0;entryY=0.5;entryDx=0;entryDy=0;" parent="1" source="ArCHf40UDOw1Z-b-1YcN-25" target="ArCHf40UDOw1Z-b-1YcN-15" edge="1">
          <mxGeometry relative="1" as="geometry" />
        </mxCell>
        <mxCell id="EVRE5EcxyL9VyUtN3MJP-7" style="edgeStyle=orthogonalEdgeStyle;rounded=0;orthogonalLoop=1;jettySize=auto;html=1;entryX=0;entryY=0.5;entryDx=0;entryDy=0;" edge="1" parent="1" source="ArCHf40UDOw1Z-b-1YcN-25" target="EVRE5EcxyL9VyUtN3MJP-6">
          <mxGeometry relative="1" as="geometry" />
        </mxCell>
        <mxCell id="EVRE5EcxyL9VyUtN3MJP-74" style="edgeStyle=orthogonalEdgeStyle;rounded=0;orthogonalLoop=1;jettySize=auto;html=1;entryX=0;entryY=0.5;entryDx=0;entryDy=0;" edge="1" parent="1" source="ArCHf40UDOw1Z-b-1YcN-25" target="EVRE5EcxyL9VyUtN3MJP-13">
          <mxGeometry relative="1" as="geometry" />
        </mxCell>
        <mxCell id="EVRE5EcxyL9VyUtN3MJP-75" style="edgeStyle=orthogonalEdgeStyle;rounded=0;orthogonalLoop=1;jettySize=auto;html=1;entryX=0;entryY=0.5;entryDx=0;entryDy=0;" edge="1" parent="1" source="ArCHf40UDOw1Z-b-1YcN-25" target="EVRE5EcxyL9VyUtN3MJP-12">
          <mxGeometry relative="1" as="geometry" />
        </mxCell>
        <mxCell id="EVRE5EcxyL9VyUtN3MJP-76" style="edgeStyle=orthogonalEdgeStyle;rounded=0;orthogonalLoop=1;jettySize=auto;html=1;entryX=0;entryY=0.5;entryDx=0;entryDy=0;" edge="1" parent="1" source="ArCHf40UDOw1Z-b-1YcN-25" target="ArCHf40UDOw1Z-b-1YcN-65">
          <mxGeometry relative="1" as="geometry" />
        </mxCell>
        <mxCell id="EVRE5EcxyL9VyUtN3MJP-77" style="edgeStyle=orthogonalEdgeStyle;rounded=0;orthogonalLoop=1;jettySize=auto;html=1;entryX=0;entryY=0.5;entryDx=0;entryDy=0;" edge="1" parent="1" source="ArCHf40UDOw1Z-b-1YcN-25" target="ArCHf40UDOw1Z-b-1YcN-71">
          <mxGeometry relative="1" as="geometry" />
        </mxCell>
        <mxCell id="EVRE5EcxyL9VyUtN3MJP-78" style="edgeStyle=orthogonalEdgeStyle;rounded=0;orthogonalLoop=1;jettySize=auto;html=1;entryX=0;entryY=0.5;entryDx=0;entryDy=0;" edge="1" parent="1" source="ArCHf40UDOw1Z-b-1YcN-25" target="ArCHf40UDOw1Z-b-1YcN-64">
          <mxGeometry relative="1" as="geometry" />
        </mxCell>
        <mxCell id="EVRE5EcxyL9VyUtN3MJP-79" style="edgeStyle=orthogonalEdgeStyle;rounded=0;orthogonalLoop=1;jettySize=auto;html=1;entryX=0;entryY=0.5;entryDx=0;entryDy=0;" edge="1" parent="1" source="ArCHf40UDOw1Z-b-1YcN-25" target="ArCHf40UDOw1Z-b-1YcN-84">
          <mxGeometry relative="1" as="geometry" />
        </mxCell>
        <mxCell id="EVRE5EcxyL9VyUtN3MJP-80" style="edgeStyle=orthogonalEdgeStyle;rounded=0;orthogonalLoop=1;jettySize=auto;html=1;entryX=0;entryY=0.5;entryDx=0;entryDy=0;" edge="1" parent="1" source="ArCHf40UDOw1Z-b-1YcN-25" target="ArCHf40UDOw1Z-b-1YcN-85">
          <mxGeometry relative="1" as="geometry" />
        </mxCell>
        <mxCell id="EVRE5EcxyL9VyUtN3MJP-81" style="edgeStyle=orthogonalEdgeStyle;rounded=0;orthogonalLoop=1;jettySize=auto;html=1;entryX=0;entryY=0.5;entryDx=0;entryDy=0;" edge="1" parent="1" source="ArCHf40UDOw1Z-b-1YcN-25" target="EVRE5EcxyL9VyUtN3MJP-4">
          <mxGeometry relative="1" as="geometry" />
        </mxCell>
        <mxCell id="EVRE5EcxyL9VyUtN3MJP-82" style="edgeStyle=orthogonalEdgeStyle;rounded=0;orthogonalLoop=1;jettySize=auto;html=1;entryX=0;entryY=0.5;entryDx=0;entryDy=0;" edge="1" parent="1" source="ArCHf40UDOw1Z-b-1YcN-25" target="ArCHf40UDOw1Z-b-1YcN-69">
          <mxGeometry relative="1" as="geometry" />
        </mxCell>
        <mxCell id="EVRE5EcxyL9VyUtN3MJP-83" style="edgeStyle=orthogonalEdgeStyle;rounded=0;orthogonalLoop=1;jettySize=auto;html=1;entryX=0;entryY=0.5;entryDx=0;entryDy=0;" edge="1" parent="1" source="ArCHf40UDOw1Z-b-1YcN-25" target="ArCHf40UDOw1Z-b-1YcN-68">
          <mxGeometry relative="1" as="geometry" />
        </mxCell>
        <mxCell id="EVRE5EcxyL9VyUtN3MJP-84" style="edgeStyle=orthogonalEdgeStyle;rounded=0;orthogonalLoop=1;jettySize=auto;html=1;entryX=0;entryY=0.5;entryDx=0;entryDy=0;" edge="1" parent="1" source="ArCHf40UDOw1Z-b-1YcN-25" target="ArCHf40UDOw1Z-b-1YcN-67">
          <mxGeometry relative="1" as="geometry" />
        </mxCell>
        <mxCell id="EVRE5EcxyL9VyUtN3MJP-85" style="edgeStyle=orthogonalEdgeStyle;rounded=0;orthogonalLoop=1;jettySize=auto;html=1;entryX=0;entryY=0.5;entryDx=0;entryDy=0;" edge="1" parent="1" source="ArCHf40UDOw1Z-b-1YcN-25" target="EVRE5EcxyL9VyUtN3MJP-37">
          <mxGeometry relative="1" as="geometry" />
        </mxCell>
        <mxCell id="EVRE5EcxyL9VyUtN3MJP-86" style="edgeStyle=orthogonalEdgeStyle;rounded=0;orthogonalLoop=1;jettySize=auto;html=1;entryX=0;entryY=0.5;entryDx=0;entryDy=0;" edge="1" parent="1" source="ArCHf40UDOw1Z-b-1YcN-25" target="ArCHf40UDOw1Z-b-1YcN-63">
          <mxGeometry relative="1" as="geometry" />
        </mxCell>
        <mxCell id="EVRE5EcxyL9VyUtN3MJP-87" style="edgeStyle=orthogonalEdgeStyle;rounded=0;orthogonalLoop=1;jettySize=auto;html=1;entryX=0;entryY=0.5;entryDx=0;entryDy=0;" edge="1" parent="1" source="ArCHf40UDOw1Z-b-1YcN-25" target="ArCHf40UDOw1Z-b-1YcN-61">
          <mxGeometry relative="1" as="geometry" />
        </mxCell>
        <mxCell id="EVRE5EcxyL9VyUtN3MJP-88" style="edgeStyle=orthogonalEdgeStyle;rounded=0;orthogonalLoop=1;jettySize=auto;html=1;entryX=0;entryY=0.5;entryDx=0;entryDy=0;" edge="1" parent="1" source="ArCHf40UDOw1Z-b-1YcN-25" target="ArCHf40UDOw1Z-b-1YcN-74">
          <mxGeometry relative="1" as="geometry" />
        </mxCell>
        <mxCell id="EVRE5EcxyL9VyUtN3MJP-89" style="edgeStyle=orthogonalEdgeStyle;rounded=0;orthogonalLoop=1;jettySize=auto;html=1;entryX=0;entryY=0.5;entryDx=0;entryDy=0;" edge="1" parent="1" source="ArCHf40UDOw1Z-b-1YcN-25" target="ArCHf40UDOw1Z-b-1YcN-66">
          <mxGeometry relative="1" as="geometry" />
        </mxCell>
        <mxCell id="EVRE5EcxyL9VyUtN3MJP-90" style="edgeStyle=orthogonalEdgeStyle;rounded=0;orthogonalLoop=1;jettySize=auto;html=1;entryX=0;entryY=0.5;entryDx=0;entryDy=0;" edge="1" parent="1" source="ArCHf40UDOw1Z-b-1YcN-25" target="EVRE5EcxyL9VyUtN3MJP-38">
          <mxGeometry relative="1" as="geometry" />
        </mxCell>
        <mxCell id="EVRE5EcxyL9VyUtN3MJP-91" style="edgeStyle=orthogonalEdgeStyle;rounded=0;orthogonalLoop=1;jettySize=auto;html=1;entryX=0;entryY=0.5;entryDx=0;entryDy=0;" edge="1" parent="1" source="ArCHf40UDOw1Z-b-1YcN-25" target="EVRE5EcxyL9VyUtN3MJP-39">
          <mxGeometry relative="1" as="geometry" />
        </mxCell>
        <mxCell id="EVRE5EcxyL9VyUtN3MJP-92" style="edgeStyle=orthogonalEdgeStyle;rounded=0;orthogonalLoop=1;jettySize=auto;html=1;entryX=0;entryY=0.5;entryDx=0;entryDy=0;" edge="1" parent="1" source="ArCHf40UDOw1Z-b-1YcN-25" target="EVRE5EcxyL9VyUtN3MJP-40">
          <mxGeometry relative="1" as="geometry" />
        </mxCell>
        <mxCell id="EVRE5EcxyL9VyUtN3MJP-93" style="edgeStyle=orthogonalEdgeStyle;rounded=0;orthogonalLoop=1;jettySize=auto;html=1;entryX=0;entryY=0.5;entryDx=0;entryDy=0;" edge="1" parent="1" source="ArCHf40UDOw1Z-b-1YcN-25" target="EVRE5EcxyL9VyUtN3MJP-36">
          <mxGeometry relative="1" as="geometry" />
        </mxCell>
        <mxCell id="EVRE5EcxyL9VyUtN3MJP-94" style="edgeStyle=orthogonalEdgeStyle;rounded=0;orthogonalLoop=1;jettySize=auto;html=1;entryX=0;entryY=0.5;entryDx=0;entryDy=0;" edge="1" parent="1" source="ArCHf40UDOw1Z-b-1YcN-25" target="EVRE5EcxyL9VyUtN3MJP-34">
          <mxGeometry relative="1" as="geometry" />
        </mxCell>
        <mxCell id="EVRE5EcxyL9VyUtN3MJP-95" style="edgeStyle=orthogonalEdgeStyle;rounded=0;orthogonalLoop=1;jettySize=auto;html=1;entryX=0;entryY=0.5;entryDx=0;entryDy=0;" edge="1" parent="1" source="ArCHf40UDOw1Z-b-1YcN-25" target="ArCHf40UDOw1Z-b-1YcN-22">
          <mxGeometry relative="1" as="geometry" />
        </mxCell>
        <mxCell id="EVRE5EcxyL9VyUtN3MJP-96" style="edgeStyle=orthogonalEdgeStyle;rounded=0;orthogonalLoop=1;jettySize=auto;html=1;entryX=0;entryY=0.5;entryDx=0;entryDy=0;" edge="1" parent="1" source="ArCHf40UDOw1Z-b-1YcN-25" target="ArCHf40UDOw1Z-b-1YcN-21">
          <mxGeometry relative="1" as="geometry" />
        </mxCell>
        <mxCell id="EVRE5EcxyL9VyUtN3MJP-97" style="edgeStyle=orthogonalEdgeStyle;rounded=0;orthogonalLoop=1;jettySize=auto;html=1;entryX=0;entryY=0.5;entryDx=0;entryDy=0;" edge="1" parent="1" source="ArCHf40UDOw1Z-b-1YcN-25" target="ArCHf40UDOw1Z-b-1YcN-19">
          <mxGeometry relative="1" as="geometry" />
        </mxCell>
        <mxCell id="EVRE5EcxyL9VyUtN3MJP-110" style="edgeStyle=orthogonalEdgeStyle;rounded=0;orthogonalLoop=1;jettySize=auto;html=1;entryX=0;entryY=0.5;entryDx=0;entryDy=0;" edge="1" parent="1" source="ArCHf40UDOw1Z-b-1YcN-25" target="EVRE5EcxyL9VyUtN3MJP-99">
          <mxGeometry relative="1" as="geometry" />
        </mxCell>
        <mxCell id="EVRE5EcxyL9VyUtN3MJP-111" style="edgeStyle=orthogonalEdgeStyle;rounded=0;orthogonalLoop=1;jettySize=auto;html=1;entryX=0;entryY=0.5;entryDx=0;entryDy=0;" edge="1" parent="1" source="ArCHf40UDOw1Z-b-1YcN-25" target="EVRE5EcxyL9VyUtN3MJP-100">
          <mxGeometry relative="1" as="geometry" />
        </mxCell>
        <mxCell id="EVRE5EcxyL9VyUtN3MJP-112" style="edgeStyle=orthogonalEdgeStyle;rounded=0;orthogonalLoop=1;jettySize=auto;html=1;entryX=0;entryY=0.5;entryDx=0;entryDy=0;" edge="1" parent="1" source="ArCHf40UDOw1Z-b-1YcN-25" target="EVRE5EcxyL9VyUtN3MJP-101">
          <mxGeometry relative="1" as="geometry" />
        </mxCell>
        <mxCell id="EVRE5EcxyL9VyUtN3MJP-113" style="edgeStyle=orthogonalEdgeStyle;rounded=0;orthogonalLoop=1;jettySize=auto;html=1;entryX=0;entryY=0.5;entryDx=0;entryDy=0;" edge="1" parent="1" source="ArCHf40UDOw1Z-b-1YcN-25" target="EVRE5EcxyL9VyUtN3MJP-105">
          <mxGeometry relative="1" as="geometry" />
        </mxCell>
        <mxCell id="EVRE5EcxyL9VyUtN3MJP-114" style="edgeStyle=orthogonalEdgeStyle;rounded=0;orthogonalLoop=1;jettySize=auto;html=1;entryX=0;entryY=0.5;entryDx=0;entryDy=0;" edge="1" parent="1" source="ArCHf40UDOw1Z-b-1YcN-25" target="EVRE5EcxyL9VyUtN3MJP-106">
          <mxGeometry relative="1" as="geometry" />
        </mxCell>
        <mxCell id="EVRE5EcxyL9VyUtN3MJP-115" style="edgeStyle=orthogonalEdgeStyle;rounded=0;orthogonalLoop=1;jettySize=auto;html=1;entryX=0;entryY=0.5;entryDx=0;entryDy=0;" edge="1" parent="1" source="ArCHf40UDOw1Z-b-1YcN-25" target="EVRE5EcxyL9VyUtN3MJP-104">
          <mxGeometry relative="1" as="geometry" />
        </mxCell>
        <mxCell id="EVRE5EcxyL9VyUtN3MJP-116" style="edgeStyle=orthogonalEdgeStyle;rounded=0;orthogonalLoop=1;jettySize=auto;html=1;entryX=0;entryY=0.5;entryDx=0;entryDy=0;" edge="1" parent="1" source="ArCHf40UDOw1Z-b-1YcN-25" target="EVRE5EcxyL9VyUtN3MJP-103">
          <mxGeometry relative="1" as="geometry" />
        </mxCell>
        <mxCell id="EVRE5EcxyL9VyUtN3MJP-117" style="edgeStyle=orthogonalEdgeStyle;rounded=0;orthogonalLoop=1;jettySize=auto;html=1;entryX=0;entryY=0.5;entryDx=0;entryDy=0;" edge="1" parent="1" source="ArCHf40UDOw1Z-b-1YcN-25" target="EVRE5EcxyL9VyUtN3MJP-107">
          <mxGeometry relative="1" as="geometry" />
        </mxCell>
        <mxCell id="ArCHf40UDOw1Z-b-1YcN-25" value="bslKatana" style="rounded=0;whiteSpace=wrap;html=1;fillColor=#f5f5f5;strokeColor=#666666;fontStyle=1;fontColor=#333333;" parent="1" vertex="1">
          <mxGeometry width="160" height="40" as="geometry" />
        </mxCell>
        <mxCell id="ArCHf40UDOw1Z-b-1YcN-38" value="" style="edgeStyle=orthogonalEdgeStyle;rounded=0;orthogonalLoop=1;jettySize=auto;html=1;" parent="1" source="ArCHf40UDOw1Z-b-1YcN-29" target="ArCHf40UDOw1Z-b-1YcN-37" edge="1">
          <mxGeometry relative="1" as="geometry" />
        </mxCell>
        <mxCell id="ArCHf40UDOw1Z-b-1YcN-29" value="sgtkCore" style="rounded=0;whiteSpace=wrap;html=1;fillColor=#f8cecc;strokeColor=#b85450;fontStyle=1" parent="1" vertex="1">
          <mxGeometry x="708" y="105.66999999999999" width="160" height="40" as="geometry" />
        </mxCell>
        <mxCell id="ArCHf40UDOw1Z-b-1YcN-43" value="" style="edgeStyle=orthogonalEdgeStyle;rounded=0;orthogonalLoop=1;jettySize=auto;html=1;entryX=0;entryY=0.5;entryDx=0;entryDy=0;" parent="1" source="ArCHf40UDOw1Z-b-1YcN-31" target="ArCHf40UDOw1Z-b-1YcN-33" edge="1">
          <mxGeometry relative="1" as="geometry" />
        </mxCell>
        <mxCell id="ArCHf40UDOw1Z-b-1YcN-45" value="" style="edgeStyle=orthogonalEdgeStyle;rounded=0;orthogonalLoop=1;jettySize=auto;html=1;" parent="1" source="ArCHf40UDOw1Z-b-1YcN-31" target="ArCHf40UDOw1Z-b-1YcN-44" edge="1">
          <mxGeometry relative="1" as="geometry" />
        </mxCell>
        <mxCell id="ArCHf40UDOw1Z-b-1YcN-31" value="corePython" style="rounded=0;whiteSpace=wrap;html=1;fillColor=#f8cecc;strokeColor=#b85450;fontStyle=1" parent="1" vertex="1">
          <mxGeometry x="708" y="-88.95" width="160" height="40" as="geometry" />
        </mxCell>
        <mxCell id="ArCHf40UDOw1Z-b-1YcN-36" value="" style="edgeStyle=orthogonalEdgeStyle;rounded=0;orthogonalLoop=1;jettySize=auto;html=1;" parent="1" source="ArCHf40UDOw1Z-b-1YcN-33" target="ArCHf40UDOw1Z-b-1YcN-35" edge="1">
          <mxGeometry relative="1" as="geometry" />
        </mxCell>
        <mxCell id="ArCHf40UDOw1Z-b-1YcN-33" value="pythonPorting" style="rounded=0;whiteSpace=wrap;html=1;fillColor=#f8cecc;strokeColor=#b85450;fontStyle=1" parent="1" vertex="1">
          <mxGeometry x="934" y="-124.95" width="160" height="40" as="geometry" />
        </mxCell>
        <mxCell id="ArCHf40UDOw1Z-b-1YcN-35" value="six" style="rounded=0;whiteSpace=wrap;html=1;fillColor=#f8cecc;strokeColor=#b85450;fontStyle=1" parent="1" vertex="1">
          <mxGeometry x="1160" y="-124.95" width="160" height="40" as="geometry" />
        </mxCell>
        <mxCell id="ArCHf40UDOw1Z-b-1YcN-37" value="tkCore" style="rounded=0;whiteSpace=wrap;html=1;fillColor=#f8cecc;strokeColor=#b85450;fontStyle=1" parent="1" vertex="1">
          <mxGeometry x="934" y="105.66999999999999" width="160" height="40" as="geometry" />
        </mxCell>
        <mxCell id="ArCHf40UDOw1Z-b-1YcN-44" value="pyMikLogging" style="rounded=0;whiteSpace=wrap;html=1;fillColor=#f8cecc;strokeColor=#b85450;fontStyle=1" parent="1" vertex="1">
          <mxGeometry x="934" y="-53.7" width="160" height="40" as="geometry" />
        </mxCell>
        <mxCell id="ArCHf40UDOw1Z-b-1YcN-46" value="rez" style="rounded=0;whiteSpace=wrap;html=1;fillColor=#f8cecc;strokeColor=#b85450;fontStyle=1" parent="1" vertex="1">
          <mxGeometry x="934" y="-213.75" width="160" height="40" as="geometry" />
        </mxCell>
        <mxCell id="ArCHf40UDOw1Z-b-1YcN-52" style="edgeStyle=orthogonalEdgeStyle;rounded=0;orthogonalLoop=1;jettySize=auto;html=1;entryX=0;entryY=0.5;entryDx=0;entryDy=0;" parent="1" source="ArCHf40UDOw1Z-b-1YcN-51" target="ArCHf40UDOw1Z-b-1YcN-46" edge="1">
          <mxGeometry relative="1" as="geometry" />
        </mxCell>
        <mxCell id="ArCHf40UDOw1Z-b-1YcN-51" value="rezCustomCmds" style="rounded=0;whiteSpace=wrap;html=1;fillColor=#f8cecc;strokeColor=#b85450;fontStyle=1" parent="1" vertex="1">
          <mxGeometry x="708" y="-213.75" width="160" height="40" as="geometry" />
        </mxCell>
        <mxCell id="ArCHf40UDOw1Z-b-1YcN-55" value="masterTkConfig" style="rounded=0;whiteSpace=wrap;html=1;fillColor=#f8cecc;strokeColor=#b85450;fontStyle=1" parent="1" vertex="1">
          <mxGeometry x="708" y="200" width="160" height="40" as="geometry" />
        </mxCell>
        <mxCell id="ArCHf40UDOw1Z-b-1YcN-56" value="sgApi2" style="rounded=0;whiteSpace=wrap;html=1;fillColor=#f8cecc;strokeColor=#b85450;fontStyle=1" parent="1" vertex="1">
          <mxGeometry x="708" y="300" width="160" height="40" as="geometry" />
        </mxCell>
        <mxCell id="ArCHf40UDOw1Z-b-1YcN-73" value="basicBrowser" style="rounded=0;whiteSpace=wrap;html=1;fillColor=#f8cecc;strokeColor=#b85450;fontStyle=1" parent="1" vertex="1">
          <mxGeometry x="482" y="571.25" width="160" height="40" as="geometry" />
        </mxCell>
        <mxCell id="EVRE5EcxyL9VyUtN3MJP-8" style="edgeStyle=orthogonalEdgeStyle;rounded=0;orthogonalLoop=1;jettySize=auto;html=1;entryX=0;entryY=0.5;entryDx=0;entryDy=0;" edge="1" parent="1" source="EVRE5EcxyL9VyUtN3MJP-6" target="ArCHf40UDOw1Z-b-1YcN-73">
          <mxGeometry relative="1" as="geometry" />
        </mxCell>
        <mxCell id="EVRE5EcxyL9VyUtN3MJP-10" style="edgeStyle=orthogonalEdgeStyle;rounded=0;orthogonalLoop=1;jettySize=auto;html=1;entryX=0;entryY=0.5;entryDx=0;entryDy=0;" edge="1" parent="1" source="EVRE5EcxyL9VyUtN3MJP-6" target="EVRE5EcxyL9VyUtN3MJP-9">
          <mxGeometry relative="1" as="geometry" />
        </mxCell>
        <mxCell id="EVRE5EcxyL9VyUtN3MJP-6" value="corePipe" style="rounded=0;whiteSpace=wrap;html=1;fillColor=#f8cecc;strokeColor=#b85450;fontStyle=1" vertex="1" parent="1">
          <mxGeometry x="256" y="516" width="160" height="40" as="geometry" />
        </mxCell>
        <mxCell id="EVRE5EcxyL9VyUtN3MJP-9" value="qtpy" style="rounded=0;whiteSpace=wrap;html=1;fillColor=#f8cecc;strokeColor=#b85450;fontStyle=1" vertex="1" parent="1">
          <mxGeometry x="482" y="460" width="160" height="40" as="geometry" />
        </mxCell>
        <mxCell id="EVRE5EcxyL9VyUtN3MJP-47" value="light" style="text;html=1;align=center;verticalAlign=middle;resizable=0;points=[];autosize=1;strokeColor=none;fillColor=none;" vertex="1" parent="1">
          <mxGeometry x="-1880" y="-2040" width="50" height="30" as="geometry" />
        </mxCell>
        <mxCell id="EVRE5EcxyL9VyUtN3MJP-48" value="surfacing" style="text;html=1;align=center;verticalAlign=middle;resizable=0;points=[];autosize=1;strokeColor=none;fillColor=none;" vertex="1" parent="1">
          <mxGeometry x="-1480" y="-2040" width="70" height="30" as="geometry" />
        </mxCell>
        <mxCell id="EVRE5EcxyL9VyUtN3MJP-49" value="confo" style="text;html=1;align=center;verticalAlign=middle;resizable=0;points=[];autosize=1;strokeColor=none;fillColor=none;" vertex="1" parent="1">
          <mxGeometry x="-1040" y="-2040" width="50" height="30" as="geometry" />
        </mxCell>
        <mxCell id="EVRE5EcxyL9VyUtN3MJP-64" value="" style="group" vertex="1" connectable="0" parent="1">
          <mxGeometry x="-1040" y="-1960" width="160" height="340" as="geometry" />
        </mxCell>
        <mxCell id="EVRE5EcxyL9VyUtN3MJP-19" value="multiLayerLookFileResolve" style="rounded=0;html=1;fillColor=#b1ddf0;strokeColor=#10739e;fontStyle=1;whiteSpace=wrap;" vertex="1" parent="EVRE5EcxyL9VyUtN3MJP-64">
          <mxGeometry y="180" width="160" height="40" as="geometry" />
        </mxCell>
        <mxCell id="EVRE5EcxyL9VyUtN3MJP-41" value="qcRenderApply" style="rounded=0;html=1;fillColor=#b1ddf0;strokeColor=#10739e;fontStyle=1;whiteSpace=wrap;" vertex="1" parent="EVRE5EcxyL9VyUtN3MJP-64">
          <mxGeometry y="240" width="160" height="40" as="geometry" />
        </mxCell>
        <mxCell id="EVRE5EcxyL9VyUtN3MJP-51" value="sceneGenerator" style="rounded=0;whiteSpace=wrap;html=1;fillColor=#b1ddf0;strokeColor=#10739e;fontStyle=1" vertex="1" parent="EVRE5EcxyL9VyUtN3MJP-64">
          <mxGeometry width="160" height="40" as="geometry" />
        </mxCell>
        <mxCell id="EVRE5EcxyL9VyUtN3MJP-53" value="setDress" style="rounded=0;html=1;fillColor=#b1ddf0;strokeColor=#10739e;fontStyle=1;whiteSpace=wrap;" vertex="1" parent="EVRE5EcxyL9VyUtN3MJP-64">
          <mxGeometry y="60" width="160" height="40" as="geometry" />
        </mxCell>
        <mxCell id="EVRE5EcxyL9VyUtN3MJP-54" value="animCurveApply" style="rounded=0;html=1;fillColor=#b1ddf0;strokeColor=#10739e;fontStyle=1;whiteSpace=wrap;" vertex="1" parent="EVRE5EcxyL9VyUtN3MJP-64">
          <mxGeometry y="120" width="160" height="40" as="geometry" />
        </mxCell>
        <mxCell id="EVRE5EcxyL9VyUtN3MJP-57" value="projectRenderOutputDefine" style="rounded=0;html=1;fillColor=#b1ddf0;strokeColor=#10739e;fontStyle=1;whiteSpace=wrap;" vertex="1" parent="EVRE5EcxyL9VyUtN3MJP-64">
          <mxGeometry y="300" width="160" height="40" as="geometry" />
        </mxCell>
        <mxCell id="EVRE5EcxyL9VyUtN3MJP-65" value="" style="group" vertex="1" connectable="0" parent="1">
          <mxGeometry x="-1480" y="-1960" width="160" height="160" as="geometry" />
        </mxCell>
        <mxCell id="EVRE5EcxyL9VyUtN3MJP-50" value="sceneGenerator" style="rounded=0;whiteSpace=wrap;html=1;fillColor=#b1ddf0;strokeColor=#10739e;fontStyle=1" vertex="1" parent="EVRE5EcxyL9VyUtN3MJP-65">
          <mxGeometry width="160" height="40" as="geometry" />
        </mxCell>
        <mxCell id="EVRE5EcxyL9VyUtN3MJP-52" value="shadingInit" style="rounded=0;whiteSpace=wrap;html=1;fillColor=#b1ddf0;strokeColor=#10739e;fontStyle=1" vertex="1" parent="EVRE5EcxyL9VyUtN3MJP-65">
          <mxGeometry y="60" width="160" height="40" as="geometry" />
        </mxCell>
        <mxCell id="EVRE5EcxyL9VyUtN3MJP-56" value="projectRenderOutputDefine" style="rounded=0;html=1;fillColor=#b1ddf0;strokeColor=#10739e;fontStyle=1;whiteSpace=wrap;" vertex="1" parent="EVRE5EcxyL9VyUtN3MJP-65">
          <mxGeometry y="120" width="160" height="40" as="geometry" />
        </mxCell>
        <mxCell id="EVRE5EcxyL9VyUtN3MJP-66" value="" style="group" vertex="1" connectable="0" parent="1">
          <mxGeometry x="-1880" y="-1960" width="160" height="280" as="geometry" />
        </mxCell>
        <mxCell id="ArCHf40UDOw1Z-b-1YcN-80" value="sceneGenerator" style="rounded=0;whiteSpace=wrap;html=1;fillColor=#b1ddf0;strokeColor=#10739e;fontStyle=1" parent="EVRE5EcxyL9VyUtN3MJP-66" vertex="1">
          <mxGeometry width="160" height="40" as="geometry" />
        </mxCell>
        <mxCell id="EVRE5EcxyL9VyUtN3MJP-23" value="projectRenderOutputDefine" style="rounded=0;html=1;fillColor=#b1ddf0;strokeColor=#10739e;fontStyle=1;whiteSpace=wrap;" vertex="1" parent="EVRE5EcxyL9VyUtN3MJP-66">
          <mxGeometry y="240" width="160" height="40" as="geometry" />
        </mxCell>
        <mxCell id="EVRE5EcxyL9VyUtN3MJP-24" value="setDress" style="rounded=0;html=1;fillColor=#b1ddf0;strokeColor=#10739e;fontStyle=1;whiteSpace=wrap;" vertex="1" parent="EVRE5EcxyL9VyUtN3MJP-66">
          <mxGeometry y="60" width="160" height="40" as="geometry" />
        </mxCell>
        <mxCell id="EVRE5EcxyL9VyUtN3MJP-28" value="animCurveApply" style="rounded=0;html=1;fillColor=#b1ddf0;strokeColor=#10739e;fontStyle=1;whiteSpace=wrap;" vertex="1" parent="EVRE5EcxyL9VyUtN3MJP-66">
          <mxGeometry y="120" width="160" height="40" as="geometry" />
        </mxCell>
        <mxCell id="EVRE5EcxyL9VyUtN3MJP-55" value="multiLayerLookFileResolve" style="rounded=0;html=1;fillColor=#b1ddf0;strokeColor=#10739e;fontStyle=1;whiteSpace=wrap;" vertex="1" parent="EVRE5EcxyL9VyUtN3MJP-66">
          <mxGeometry y="180" width="160" height="40" as="geometry" />
        </mxCell>
        <mxCell id="EVRE5EcxyL9VyUtN3MJP-67" value="" style="group" vertex="1" connectable="0" parent="1">
          <mxGeometry x="-1880" y="-1520" width="160" height="340" as="geometry" />
        </mxCell>
        <mxCell id="ArCHf40UDOw1Z-b-1YcN-77" value="katanaImportAssetTool" style="rounded=0;whiteSpace=wrap;html=1;fillColor=#b1ddf0;strokeColor=#10739e;fontStyle=1" parent="EVRE5EcxyL9VyUtN3MJP-67" vertex="1">
          <mxGeometry y="120" width="160" height="40" as="geometry" />
        </mxCell>
        <mxCell id="ArCHf40UDOw1Z-b-1YcN-78" value="katanaIUberCamTool" style="rounded=0;whiteSpace=wrap;html=1;fillColor=#b1ddf0;strokeColor=#10739e;fontStyle=1" parent="EVRE5EcxyL9VyUtN3MJP-67" vertex="1">
          <mxGeometry y="300" width="160" height="40" as="geometry" />
        </mxCell>
        <mxCell id="ArCHf40UDOw1Z-b-1YcN-79" value="katanaShotSettingsTool" style="rounded=0;whiteSpace=wrap;html=1;fillColor=#b1ddf0;strokeColor=#10739e;fontStyle=1" parent="EVRE5EcxyL9VyUtN3MJP-67" vertex="1">
          <mxGeometry y="180" width="160" height="40" as="geometry" />
        </mxCell>
        <mxCell id="EVRE5EcxyL9VyUtN3MJP-29" value="katanaDeclinatorTool" style="rounded=0;whiteSpace=wrap;html=1;fillColor=#b1ddf0;strokeColor=#10739e;fontStyle=1" vertex="1" parent="EVRE5EcxyL9VyUtN3MJP-67">
          <mxGeometry y="240" width="160" height="40" as="geometry" />
        </mxCell>
        <mxCell id="EVRE5EcxyL9VyUtN3MJP-59" value="katanaCreateLayerTool" style="rounded=0;whiteSpace=wrap;html=1;fillColor=#b1ddf0;strokeColor=#10739e;fontStyle=1" vertex="1" parent="EVRE5EcxyL9VyUtN3MJP-67">
          <mxGeometry width="160" height="40" as="geometry" />
        </mxCell>
        <mxCell id="EVRE5EcxyL9VyUtN3MJP-61" value="katanaLayerSettingsTool" style="rounded=0;whiteSpace=wrap;html=1;fillColor=#b1ddf0;strokeColor=#10739e;fontStyle=1" vertex="1" parent="EVRE5EcxyL9VyUtN3MJP-67">
          <mxGeometry y="60" width="160" height="40" as="geometry" />
        </mxCell>
        <mxCell id="EVRE5EcxyL9VyUtN3MJP-68" value="" style="group" vertex="1" connectable="0" parent="1">
          <mxGeometry x="-1480" y="-1520" width="160" height="220" as="geometry" />
        </mxCell>
        <mxCell id="EVRE5EcxyL9VyUtN3MJP-26" value="katanaShaderEditTool" style="rounded=0;whiteSpace=wrap;html=1;fillColor=#b1ddf0;strokeColor=#10739e;fontStyle=1" vertex="1" parent="EVRE5EcxyL9VyUtN3MJP-68">
          <mxGeometry y="180" width="160" height="40" as="geometry" />
        </mxCell>
        <mxCell id="EVRE5EcxyL9VyUtN3MJP-27" value="katanaLookFileAssignTool" style="rounded=0;whiteSpace=wrap;html=1;fillColor=#b1ddf0;strokeColor=#10739e;fontStyle=1" vertex="1" parent="EVRE5EcxyL9VyUtN3MJP-68">
          <mxGeometry y="120" width="160" height="40" as="geometry" />
        </mxCell>
        <mxCell id="EVRE5EcxyL9VyUtN3MJP-58" value="katanaCreateLayerTool" style="rounded=0;whiteSpace=wrap;html=1;fillColor=#b1ddf0;strokeColor=#10739e;fontStyle=1" vertex="1" parent="EVRE5EcxyL9VyUtN3MJP-68">
          <mxGeometry width="160" height="40" as="geometry" />
        </mxCell>
        <mxCell id="EVRE5EcxyL9VyUtN3MJP-60" value="katanaLayerSettingsTool" style="rounded=0;whiteSpace=wrap;html=1;fillColor=#b1ddf0;strokeColor=#10739e;fontStyle=1" vertex="1" parent="EVRE5EcxyL9VyUtN3MJP-68">
          <mxGeometry y="60" width="160" height="40" as="geometry" />
        </mxCell>
        <mxCell id="EVRE5EcxyL9VyUtN3MJP-69" value="" style="group" vertex="1" connectable="0" parent="1">
          <mxGeometry x="-1040" y="-1520" width="160" height="160" as="geometry" />
        </mxCell>
        <mxCell id="ArCHf40UDOw1Z-b-1YcN-75" value="katanaCreateLayerTool" style="rounded=0;whiteSpace=wrap;html=1;fillColor=#b1ddf0;strokeColor=#10739e;fontStyle=1" parent="EVRE5EcxyL9VyUtN3MJP-69" vertex="1">
          <mxGeometry width="160" height="40" as="geometry" />
        </mxCell>
        <mxCell id="ArCHf40UDOw1Z-b-1YcN-76" value="katanaLayerSettingsTool" style="rounded=0;whiteSpace=wrap;html=1;fillColor=#b1ddf0;strokeColor=#10739e;fontStyle=1" parent="EVRE5EcxyL9VyUtN3MJP-69" vertex="1">
          <mxGeometry y="60" width="160" height="40" as="geometry" />
        </mxCell>
        <mxCell id="EVRE5EcxyL9VyUtN3MJP-62" value="katanaIUberCamTool" style="rounded=0;whiteSpace=wrap;html=1;fillColor=#b1ddf0;strokeColor=#10739e;fontStyle=1" vertex="1" parent="EVRE5EcxyL9VyUtN3MJP-69">
          <mxGeometry y="120" width="160" height="40" as="geometry" />
        </mxCell>
        <mxCell id="EVRE5EcxyL9VyUtN3MJP-72" value="" style="group" vertex="1" connectable="0" parent="1">
          <mxGeometry x="256" y="-2651" width="400" height="1601.25" as="geometry" />
        </mxCell>
        <mxCell id="EVRE5EcxyL9VyUtN3MJP-30" value="" style="group" vertex="1" connectable="0" parent="EVRE5EcxyL9VyUtN3MJP-72">
          <mxGeometry y="1320" width="400" height="281.25" as="geometry" />
        </mxCell>
        <mxCell id="ArCHf40UDOw1Z-b-1YcN-64" value="sanityCheck" style="rounded=0;whiteSpace=wrap;html=1;fillColor=#d5e8d4;strokeColor=#82b366;fontStyle=1" parent="EVRE5EcxyL9VyUtN3MJP-30" vertex="1">
          <mxGeometry width="160" height="40" as="geometry" />
        </mxCell>
        <mxCell id="ArCHf40UDOw1Z-b-1YcN-65" value="sanityCheck_katana" style="rounded=0;whiteSpace=wrap;html=1;fillColor=#d5e8d4;strokeColor=#82b366;fontStyle=1" parent="EVRE5EcxyL9VyUtN3MJP-30" vertex="1">
          <mxGeometry y="121.25" width="160" height="40" as="geometry" />
        </mxCell>
        <mxCell id="ArCHf40UDOw1Z-b-1YcN-71" value="katanaSanityCheckTool" style="rounded=0;whiteSpace=wrap;html=1;fillColor=#d5e8d4;strokeColor=#82b366;fontStyle=1" parent="EVRE5EcxyL9VyUtN3MJP-30" vertex="1">
          <mxGeometry y="61.25" width="160" height="40" as="geometry" />
        </mxCell>
        <mxCell id="EVRE5EcxyL9VyUtN3MJP-12" value="sanityCheck_katana_site" style="rounded=0;whiteSpace=wrap;html=1;fillColor=#d5e8d4;strokeColor=#82b366;fontStyle=1" vertex="1" parent="EVRE5EcxyL9VyUtN3MJP-30">
          <mxGeometry y="181.25" width="160" height="40" as="geometry" />
        </mxCell>
        <mxCell id="EVRE5EcxyL9VyUtN3MJP-13" value="sanityCheck_katana_bsl" style="rounded=0;whiteSpace=wrap;html=1;fillColor=#d5e8d4;strokeColor=#82b366;fontStyle=1" vertex="1" parent="EVRE5EcxyL9VyUtN3MJP-30">
          <mxGeometry y="241.25" width="160" height="40" as="geometry" />
        </mxCell>
        <mxCell id="EVRE5EcxyL9VyUtN3MJP-14" value="coreQt" style="rounded=0;whiteSpace=wrap;html=1;fillColor=#f8cecc;strokeColor=#b85450;fontStyle=1" vertex="1" parent="EVRE5EcxyL9VyUtN3MJP-30">
          <mxGeometry x="240" width="160" height="40" as="geometry" />
        </mxCell>
        <mxCell id="EVRE5EcxyL9VyUtN3MJP-15" style="edgeStyle=orthogonalEdgeStyle;rounded=0;orthogonalLoop=1;jettySize=auto;html=1;entryX=0;entryY=0.5;entryDx=0;entryDy=0;" edge="1" parent="EVRE5EcxyL9VyUtN3MJP-30" source="ArCHf40UDOw1Z-b-1YcN-64" target="EVRE5EcxyL9VyUtN3MJP-14">
          <mxGeometry relative="1" as="geometry" />
        </mxCell>
        <mxCell id="EVRE5EcxyL9VyUtN3MJP-42" value="" style="group" vertex="1" connectable="0" parent="EVRE5EcxyL9VyUtN3MJP-72">
          <mxGeometry width="160" height="400" as="geometry" />
        </mxCell>
        <mxCell id="ArCHf40UDOw1Z-b-1YcN-19" value="katana" style="rounded=0;whiteSpace=wrap;html=1;fillColor=#ffe6cc;strokeColor=#d79b00;fontStyle=1" parent="EVRE5EcxyL9VyUtN3MJP-42" vertex="1">
          <mxGeometry width="160" height="40" as="geometry" />
        </mxCell>
        <mxCell id="ArCHf40UDOw1Z-b-1YcN-21" value="arnold" style="rounded=0;whiteSpace=wrap;html=1;fillColor=#ffe6cc;strokeColor=#d79b00;fontStyle=1" parent="EVRE5EcxyL9VyUtN3MJP-42" vertex="1">
          <mxGeometry y="60" width="160" height="40" as="geometry" />
        </mxCell>
        <mxCell id="ArCHf40UDOw1Z-b-1YcN-22" value="ktoa" style="rounded=0;whiteSpace=wrap;html=1;fillColor=#ffe6cc;strokeColor=#d79b00;fontStyle=1" parent="EVRE5EcxyL9VyUtN3MJP-42" vertex="1">
          <mxGeometry y="120" width="160" height="40" as="geometry" />
        </mxCell>
        <mxCell id="EVRE5EcxyL9VyUtN3MJP-34" value="ktoa" style="rounded=0;whiteSpace=wrap;html=1;fillColor=#ffe6cc;strokeColor=#d79b00;fontStyle=1" vertex="1" parent="EVRE5EcxyL9VyUtN3MJP-42">
          <mxGeometry y="180" width="160" height="40" as="geometry" />
        </mxCell>
        <mxCell id="EVRE5EcxyL9VyUtN3MJP-36" value="yeti" style="rounded=0;whiteSpace=wrap;html=1;fillColor=#ffe6cc;strokeColor=#d79b00;fontStyle=1" vertex="1" parent="EVRE5EcxyL9VyUtN3MJP-42">
          <mxGeometry y="240" width="160" height="40" as="geometry" />
        </mxCell>
        <mxCell id="EVRE5EcxyL9VyUtN3MJP-39" value="golaemForKatana" style="rounded=0;whiteSpace=wrap;html=1;fillColor=#ffe6cc;strokeColor=#d79b00;fontStyle=1" vertex="1" parent="EVRE5EcxyL9VyUtN3MJP-42">
          <mxGeometry y="360" width="160" height="40" as="geometry" />
        </mxCell>
        <mxCell id="EVRE5EcxyL9VyUtN3MJP-40" value="golaemForArnold" style="rounded=0;whiteSpace=wrap;html=1;fillColor=#ffe6cc;strokeColor=#d79b00;fontStyle=1" vertex="1" parent="EVRE5EcxyL9VyUtN3MJP-42">
          <mxGeometry y="300" width="160" height="40" as="geometry" />
        </mxCell>
        <mxCell id="EVRE5EcxyL9VyUtN3MJP-43" value="" style="group" vertex="1" connectable="0" parent="EVRE5EcxyL9VyUtN3MJP-72">
          <mxGeometry y="480" width="160" height="220" as="geometry" />
        </mxCell>
        <mxCell id="ArCHf40UDOw1Z-b-1YcN-66" value="quiffForArnold" style="rounded=0;whiteSpace=wrap;html=1;fillColor=#d0cee2;strokeColor=#56517e;fontStyle=1" parent="EVRE5EcxyL9VyUtN3MJP-43" vertex="1">
          <mxGeometry y="60" width="160" height="40" as="geometry" />
        </mxCell>
        <mxCell id="ArCHf40UDOw1Z-b-1YcN-74" value="mikrosShaders" style="rounded=0;whiteSpace=wrap;html=1;fillColor=#d0cee2;strokeColor=#56517e;fontStyle=1" parent="EVRE5EcxyL9VyUtN3MJP-43" vertex="1">
          <mxGeometry y="120" width="160" height="40" as="geometry" />
        </mxCell>
        <mxCell id="EVRE5EcxyL9VyUtN3MJP-37" value="mikrosProcs" style="rounded=0;whiteSpace=wrap;html=1;fillColor=#d0cee2;strokeColor=#56517e;fontStyle=1" vertex="1" parent="EVRE5EcxyL9VyUtN3MJP-43">
          <mxGeometry y="180" width="160" height="40" as="geometry" />
        </mxCell>
        <mxCell id="EVRE5EcxyL9VyUtN3MJP-38" value="quiff" style="rounded=0;whiteSpace=wrap;html=1;fillColor=#d0cee2;strokeColor=#56517e;fontStyle=1" vertex="1" parent="EVRE5EcxyL9VyUtN3MJP-43">
          <mxGeometry width="160" height="40" as="geometry" />
        </mxCell>
        <mxCell id="EVRE5EcxyL9VyUtN3MJP-45" value="" style="group" vertex="1" connectable="0" parent="EVRE5EcxyL9VyUtN3MJP-72">
          <mxGeometry y="781.25" width="400" height="460" as="geometry" />
        </mxCell>
        <mxCell id="ArCHf40UDOw1Z-b-1YcN-61" value="katanaCore" style="rounded=0;whiteSpace=wrap;html=1;fillColor=#b0e3e6;strokeColor=#0e8088;fontStyle=1" parent="EVRE5EcxyL9VyUtN3MJP-45" vertex="1">
          <mxGeometry width="160" height="40" as="geometry" />
        </mxCell>
        <mxCell id="ArCHf40UDOw1Z-b-1YcN-62" value="katanaBase" style="rounded=0;whiteSpace=wrap;html=1;fillColor=#b0e3e6;strokeColor=#0e8088;fontStyle=1" parent="EVRE5EcxyL9VyUtN3MJP-45" vertex="1">
          <mxGeometry x="240" y="60" width="160" height="40" as="geometry" />
        </mxCell>
        <mxCell id="EVRE5EcxyL9VyUtN3MJP-44" style="edgeStyle=orthogonalEdgeStyle;rounded=0;orthogonalLoop=1;jettySize=auto;html=1;entryX=0;entryY=0.5;entryDx=0;entryDy=0;" edge="1" parent="EVRE5EcxyL9VyUtN3MJP-45" source="ArCHf40UDOw1Z-b-1YcN-63" target="ArCHf40UDOw1Z-b-1YcN-62">
          <mxGeometry relative="1" as="geometry" />
        </mxCell>
        <mxCell id="ArCHf40UDOw1Z-b-1YcN-63" value="katanaPipeline" style="rounded=0;whiteSpace=wrap;html=1;fillColor=#b0e3e6;strokeColor=#0e8088;fontStyle=1" parent="EVRE5EcxyL9VyUtN3MJP-45" vertex="1">
          <mxGeometry y="60" width="160" height="40" as="geometry" />
        </mxCell>
        <mxCell id="ArCHf40UDOw1Z-b-1YcN-67" value="katanaTools" style="rounded=0;whiteSpace=wrap;html=1;fillColor=#b0e3e6;strokeColor=#0e8088;fontStyle=1" parent="EVRE5EcxyL9VyUtN3MJP-45" vertex="1">
          <mxGeometry y="120" width="160" height="40" as="geometry" />
        </mxCell>
        <mxCell id="ArCHf40UDOw1Z-b-1YcN-68" value="katanaTools-site" style="rounded=0;whiteSpace=wrap;html=1;fillColor=#b0e3e6;strokeColor=#0e8088;fontStyle=1" parent="EVRE5EcxyL9VyUtN3MJP-45" vertex="1">
          <mxGeometry y="180" width="160" height="40" as="geometry" />
        </mxCell>
        <mxCell id="ArCHf40UDOw1Z-b-1YcN-69" value="katanaResources" style="rounded=0;whiteSpace=wrap;html=1;fillColor=#b0e3e6;strokeColor=#0e8088;fontStyle=1" parent="EVRE5EcxyL9VyUtN3MJP-45" vertex="1">
          <mxGeometry y="240" width="160" height="40" as="geometry" />
        </mxCell>
        <mxCell id="ArCHf40UDOw1Z-b-1YcN-84" value="katanaPythonExpressions" style="rounded=0;whiteSpace=wrap;html=1;fillColor=#b0e3e6;strokeColor=#0e8088;fontStyle=1" parent="EVRE5EcxyL9VyUtN3MJP-45" vertex="1">
          <mxGeometry y="420" width="160" height="40" as="geometry" />
        </mxCell>
        <mxCell id="ArCHf40UDOw1Z-b-1YcN-85" value="katanaHooks" style="rounded=0;whiteSpace=wrap;html=1;fillColor=#b0e3e6;strokeColor=#0e8088;fontStyle=1" parent="EVRE5EcxyL9VyUtN3MJP-45" vertex="1">
          <mxGeometry y="360" width="160" height="40" as="geometry" />
        </mxCell>
        <mxCell id="EVRE5EcxyL9VyUtN3MJP-4" value="bslKatanaResources" style="rounded=0;whiteSpace=wrap;html=1;fillColor=#b0e3e6;strokeColor=#0e8088;fontStyle=1" vertex="1" parent="EVRE5EcxyL9VyUtN3MJP-45">
          <mxGeometry y="300" width="160" height="40" as="geometry" />
        </mxCell>
        <mxCell id="EVRE5EcxyL9VyUtN3MJP-98" value="" style="group" vertex="1" connectable="0" parent="1">
          <mxGeometry x="256" y="-970" width="160" height="160" as="geometry" />
        </mxCell>
        <mxCell id="EVRE5EcxyL9VyUtN3MJP-99" value="sceneGenerator" style="rounded=0;whiteSpace=wrap;html=1;fillColor=#fff2cc;strokeColor=#d6b656;fontStyle=1" vertex="1" parent="EVRE5EcxyL9VyUtN3MJP-98">
          <mxGeometry width="160" height="40" as="geometry" />
        </mxCell>
        <mxCell id="EVRE5EcxyL9VyUtN3MJP-100" value="shadingInit" style="rounded=0;whiteSpace=wrap;html=1;fillColor=#fff2cc;strokeColor=#d6b656;fontStyle=1" vertex="1" parent="EVRE5EcxyL9VyUtN3MJP-98">
          <mxGeometry y="60" width="160" height="40" as="geometry" />
        </mxCell>
        <mxCell id="EVRE5EcxyL9VyUtN3MJP-101" value="projectRenderOutputDefine" style="rounded=0;html=1;fillColor=#fff2cc;strokeColor=#d6b656;fontStyle=1;whiteSpace=wrap;" vertex="1" parent="EVRE5EcxyL9VyUtN3MJP-98">
          <mxGeometry y="120" width="160" height="40" as="geometry" />
        </mxCell>
        <mxCell id="EVRE5EcxyL9VyUtN3MJP-102" value="" style="group" vertex="1" connectable="0" parent="1">
          <mxGeometry x="256" y="-740" width="160" height="220" as="geometry" />
        </mxCell>
        <mxCell id="EVRE5EcxyL9VyUtN3MJP-103" value="katanaShaderEditTool" style="rounded=0;whiteSpace=wrap;html=1;fillColor=#b1ddf0;strokeColor=#10739e;fontStyle=1" vertex="1" parent="EVRE5EcxyL9VyUtN3MJP-102">
          <mxGeometry y="180" width="160" height="40" as="geometry" />
        </mxCell>
        <mxCell id="EVRE5EcxyL9VyUtN3MJP-104" value="katanaLookFileAssignTool" style="rounded=0;whiteSpace=wrap;html=1;fillColor=#b1ddf0;strokeColor=#10739e;fontStyle=1" vertex="1" parent="EVRE5EcxyL9VyUtN3MJP-102">
          <mxGeometry y="120" width="160" height="40" as="geometry" />
        </mxCell>
        <mxCell id="EVRE5EcxyL9VyUtN3MJP-105" value="katanaCreateLayerTool" style="rounded=0;whiteSpace=wrap;html=1;fillColor=#b1ddf0;strokeColor=#10739e;fontStyle=1" vertex="1" parent="EVRE5EcxyL9VyUtN3MJP-102">
          <mxGeometry width="160" height="40" as="geometry" />
        </mxCell>
        <mxCell id="EVRE5EcxyL9VyUtN3MJP-106" value="katanaLayerSettingsTool" style="rounded=0;whiteSpace=wrap;html=1;fillColor=#b1ddf0;strokeColor=#10739e;fontStyle=1" vertex="1" parent="EVRE5EcxyL9VyUtN3MJP-102">
          <mxGeometry y="60" width="160" height="40" as="geometry" />
        </mxCell>
        <mxCell id="ArCHf40UDOw1Z-b-1YcN-86" value="materialCore" style="rounded=0;whiteSpace=wrap;html=1;fillColor=#b1ddf0;strokeColor=#10739e;fontStyle=1" parent="1" vertex="1">
          <mxGeometry x="-1480" y="-1080" width="160" height="40" as="geometry" />
        </mxCell>
        <mxCell id="ArCHf40UDOw1Z-b-1YcN-87" value="materialBase" style="rounded=0;whiteSpace=wrap;html=1;fillColor=#b1ddf0;strokeColor=#10739e;fontStyle=1" parent="1" vertex="1">
          <mxGeometry x="-1480" y="-1020" width="160" height="40" as="geometry" />
        </mxCell>
        <mxCell id="ArCHf40UDOw1Z-b-1YcN-88" value="imageCore" style="rounded=0;whiteSpace=wrap;html=1;fillColor=#b1ddf0;strokeColor=#10739e;fontStyle=1" parent="1" vertex="1">
          <mxGeometry x="-1480" y="-958.75" width="160" height="40" as="geometry" />
        </mxCell>
        <mxCell id="ArCHf40UDOw1Z-b-1YcN-89" value="materialPublisherTool" style="rounded=0;whiteSpace=wrap;html=1;fillColor=#b1ddf0;strokeColor=#10739e;fontStyle=1" parent="1" vertex="1">
          <mxGeometry x="-1480" y="-898.75" width="160" height="40" as="geometry" />
        </mxCell>
        <mxCell id="EVRE5EcxyL9VyUtN3MJP-1" value="makeTxCore" style="rounded=0;whiteSpace=wrap;html=1;fillColor=#b1ddf0;strokeColor=#10739e;fontStyle=1" vertex="1" parent="1">
          <mxGeometry x="-1480" y="-839.9999999999999" width="160" height="40" as="geometry" />
        </mxCell>
        <mxCell id="EVRE5EcxyL9VyUtN3MJP-2" value="makeTxTool" style="rounded=0;whiteSpace=wrap;html=1;fillColor=#b1ddf0;strokeColor=#10739e;fontStyle=1" vertex="1" parent="1">
          <mxGeometry x="-1480" y="-780" width="160" height="40" as="geometry" />
        </mxCell>
        <mxCell id="EVRE5EcxyL9VyUtN3MJP-3" value="openImageIO" style="rounded=0;whiteSpace=wrap;html=1;fillColor=#b1ddf0;strokeColor=#10739e;fontStyle=1" vertex="1" parent="1">
          <mxGeometry x="-1480" y="-718.75" width="160" height="40" as="geometry" />
        </mxCell>
        <mxCell id="EVRE5EcxyL9VyUtN3MJP-107" value="makeTxCore" style="rounded=0;whiteSpace=wrap;html=1;fillColor=#f8cecc;strokeColor=#b85450;fontStyle=1" vertex="1" parent="1">
          <mxGeometry x="256" y="-438.75" width="160" height="40" as="geometry" />
        </mxCell>
      </root>
    </mxGraphModel>
  </diagram>
</mxfile>
